<svg width="19" height="23" viewBox="0 0 19 23" fill="none" xmlns="http://www.w3.org/2000/svg">
<path d="M13.3524 0.94446C13.8006 0.943408 14.1549 1.29157 14.1559 1.75578L14.157 2.54705C17.0647 2.77493 18.9854 4.75628 18.9885 7.79475L19 16.6886C19.0042 20.0014 16.9229 22.0397 13.5869 22.045L5.43811 22.0556C2.12293 22.0598 0.0156467 19.9729 0.011478 16.6507L6.99559e-06 7.86122C-0.0041547 4.8027 1.84884 2.82663 4.75652 2.55971L4.75548 1.76844C4.75444 1.30423 5.09836 0.955013 5.55692 0.955013C6.01547 0.953958 6.35939 1.30212 6.36044 1.76633L6.36148 2.50485L12.552 2.49641L12.551 1.75789C12.5499 1.29368 12.8939 0.945518 13.3524 0.94446ZM13.7776 15.9248H13.7672C13.2878 15.9364 12.9032 16.3384 12.9137 16.8237C12.9147 17.309 13.3014 17.7088 13.7808 17.7194C14.2695 17.7183 14.6656 17.3164 14.6645 16.8205C14.6645 16.3246 14.2675 15.9248 13.7776 15.9248ZM5.19007 15.9258C4.71067 15.9469 4.33548 16.3489 4.33652 16.8342C4.35841 17.3195 4.75444 17.6993 5.23384 17.6772C5.70386 17.6561 6.078 17.2541 6.05612 16.7688C6.0457 16.2941 5.65905 15.9248 5.19007 15.9258ZM9.48385 15.9206C9.00445 15.9427 8.6303 16.3436 8.6303 16.8289C8.65219 17.3143 9.04822 17.693 9.52762 17.6719C9.9966 17.6498 10.3718 17.2489 10.3499 16.7625C10.3395 16.2888 9.95283 15.9195 9.48385 15.9206ZM5.18486 12.1277C4.70545 12.1489 4.33131 12.5508 4.33235 13.0361C4.3532 13.5214 4.75027 13.9012 5.22967 13.8791C5.69865 13.858 6.07279 13.456 6.05091 12.9707C6.04049 12.496 5.65488 12.1267 5.18486 12.1277ZM9.47968 12.0908C9.00028 12.1119 8.62509 12.5139 8.62613 12.9992C8.64698 13.4845 9.04405 13.8633 9.52345 13.8422C9.99243 13.82 10.3666 13.4191 10.3457 12.9338C10.3343 12.459 9.94866 12.0898 9.47968 12.0908ZM13.7735 12.0961C13.2941 12.1066 12.9189 12.497 12.9199 12.9823V12.9939C12.9303 13.4792 13.3264 13.8474 13.8068 13.8369C14.2758 13.8253 14.6499 13.4233 14.6395 12.938C14.6176 12.4738 14.2414 12.095 13.7735 12.0961ZM12.5541 4.12115L6.36356 4.12959L6.3646 4.98311C6.3646 5.43782 6.02173 5.79653 5.56317 5.79653C5.10461 5.79759 4.75965 5.43993 4.75965 4.98522L4.75861 4.17285C2.72636 4.37647 1.60184 5.57076 1.60496 7.85911L1.60601 8.18722L17.3846 8.16612V7.79686C17.3398 5.52856 16.2017 4.33848 14.1591 4.16124L14.1601 4.97361C14.1601 5.42727 13.8068 5.78704 13.3587 5.78704C12.9001 5.78809 12.5552 5.42938 12.5552 4.97572L12.5541 4.12115Z" fill="#B7B7B7"/>
</svg>
