<svg width="25" height="25" viewBox="0 0 25 25" fill="none" xmlns="http://www.w3.org/2000/svg">
<path d="M16.3524 1.94443C16.8006 1.94338 17.1549 2.29154 17.1559 2.75575L17.157 3.54702C20.0647 3.7749 21.9854 5.75624 21.9885 8.79472L22 17.6886C22.0042 21.0014 19.9229 23.0397 16.5869 23.045L8.43811 23.0555C5.12293 23.0597 3.01565 20.9729 3.01148 17.6506L3.00001 8.86119C2.99585 5.80267 4.84884 3.8266 7.75652 3.55968L7.75548 2.76841C7.75444 2.3042 8.09836 1.95498 8.55692 1.95498C9.01547 1.95393 9.35939 2.30209 9.36044 2.7663L9.36148 3.50482L15.552 3.49638L15.551 2.75786C15.5499 2.29365 15.8939 1.94549 16.3524 1.94443ZM16.7776 16.9248H16.7672C16.2878 16.9364 15.9032 17.3383 15.9137 17.8236C15.9147 18.309 16.3014 18.7088 16.7808 18.7194C17.2695 18.7183 17.6656 18.3163 17.6645 17.8205C17.6645 17.3246 17.2675 16.9248 16.7776 16.9248ZM8.19007 16.9258C7.71067 16.9469 7.33548 17.3489 7.33652 17.8342C7.35841 18.3195 7.75444 18.6993 8.23384 18.6772C8.70386 18.6561 9.078 18.2541 9.05612 17.7688C9.0457 17.294 8.65905 16.9248 8.19007 16.9258ZM12.4838 16.9205C12.0044 16.9427 11.6303 17.3436 11.6303 17.8289C11.6522 18.3142 12.0482 18.693 12.5276 18.6719C12.9966 18.6497 13.3718 18.2488 13.3499 17.7625C13.3395 17.2887 12.9528 16.9195 12.4838 16.9205ZM8.18486 13.1277C7.70545 13.1488 7.33131 13.5508 7.33235 14.0361C7.3532 14.5214 7.75027 14.9012 8.22967 14.8791C8.69865 14.858 9.07279 14.456 9.05091 13.9707C9.04049 13.4959 8.65488 13.1267 8.18486 13.1277ZM12.4797 13.0908C12.0003 13.1119 11.6251 13.5139 11.6261 13.9992C11.647 14.4845 12.044 14.8632 12.5235 14.8421C12.9924 14.82 13.3666 14.4191 13.3457 13.9338C13.3343 13.459 12.9487 13.0897 12.4797 13.0908ZM16.7735 13.0961C16.2941 13.1066 15.9189 13.497 15.9199 13.9823V13.9939C15.9303 14.4792 16.3264 14.8474 16.8068 14.8369C17.2758 14.8253 17.6499 14.4233 17.6395 13.938C17.6176 13.4738 17.2414 13.095 16.7735 13.0961ZM15.5541 5.12112L9.36356 5.12956L9.3646 5.98308C9.3646 6.43779 9.02173 6.7965 8.56317 6.7965C8.10461 6.79756 7.75965 6.4399 7.75965 5.98519L7.75861 5.17281C5.72636 5.37644 4.60184 6.57073 4.60496 8.85908L4.60601 9.18719L20.3846 9.16609V8.79683C20.3398 6.52852 19.2017 5.33845 17.1591 5.16121L17.1601 5.97358C17.1601 6.42724 16.8068 6.78701 16.3587 6.78701C15.9001 6.78806 15.5552 6.42935 15.5552 5.97569L15.5541 5.12112Z" fill="white"/>
</svg>
