<svg width="25" height="25" viewBox="0 0 25 25" fill="none" xmlns="http://www.w3.org/2000/svg">
<path d="M20.9337 19.8395C21.5217 19.8395 22 20.3241 22 20.9198C22 21.5166 21.5217 22 20.9337 22H14.9063C14.3183 22 13.84 21.5166 13.84 20.9198C13.84 20.3241 14.3183 19.8395 14.9063 19.8395H20.9337ZM16.7537 3.7379L18.3107 4.97472C18.9492 5.47398 19.3748 6.1321 19.5204 6.82427C19.6884 7.58565 19.5092 8.33341 19.0052 8.98019L9.73064 20.9739C9.305 21.5186 8.67774 21.8249 8.00567 21.8363L4.30931 21.8817C4.10769 21.8817 3.93967 21.7455 3.89486 21.5526L3.05478 17.9102C2.90917 17.2408 3.05478 16.5486 3.48042 16.0153L10.0555 7.50508C10.1675 7.36892 10.3691 7.34736 10.5035 7.44835L13.2702 9.64965C13.4494 9.79716 13.6958 9.87659 13.9535 9.84255C14.5023 9.77447 14.872 9.27521 14.8159 8.7419C14.7823 8.46957 14.6479 8.24263 14.4687 8.07243C14.4127 8.02704 11.7804 5.91651 11.7804 5.91651C11.6124 5.78035 11.5788 5.53072 11.7132 5.36165L12.7549 4.01023C13.7182 2.77341 15.3984 2.65994 16.7537 3.7379Z" fill="white"/>
</svg>
